/usr/bin/ffmpeg -hide_banner -y -y -r 10 -start_number 0 -start_number_range 1 -i /home/luci/Programming/bevy_2d_platformer/assets/level_packs/flippr_classic/graphics/frame%04d.png -f apng -pred none -plays 0 /home/luci/Programming/bevy_2d_platformer/assets/level_packs/flippr_classic/graphics/reversalhint.apng
=====================================================
Input #0, image2, from '/home/luci/Programming/bevy_2d_platformer/assets/level_packs/flippr_classic/graphics/frame%04d.png':
  Duration: 00:00:01.24, start: 0.000000, bitrate: N/A
  Stream #0:0: Video: png, rgba(pc, gbr/unknown/unknown), 64x64 [SAR 9448:9448 DAR 1:1], 25 fps, 25 tbr, 25 tbn
Stream mapping:
  Stream #0:0 -> #0:0 (png (native) -> apng (native))
Press [q] to stop, [?] for help
Output #0, apng, to '/home/luci/Programming/bevy_2d_platformer/assets/level_packs/flippr_classic/graphics/reversalhint.apng':
  Metadata:
    encoder         : Lavf61.7.100
  Stream #0:0: Video: apng, rgba(pc, gbr/unknown/unknown, progressive), 64x64 [SAR 9448:9448 DAR 1:1], q=2-31, 200 kb/s, 10 fps, 10 tbn
      Metadata:
        encoder         : Lavc61.19.100 apng
[out#0/apng @ 0x55d8bc61c800] video:4KiB audio:0KiB subtitle:0KiB other streams:0KiB global headers:0KiB muxing overhead: 2.382271%
frame=   31 fps=0.0 q=-0.0 Lsize=       4KiB time=00:00:03.10 bitrate=   9.5kbits/s speed= 397x    
